# xmcd
#
# Track frame offsets: 
#        150
#        23014
#        86497
#        103688
#        124699
#        156958
#        201039
#        246321
#
# Disc length: 3759 seconds
#
# Revision: 0
# Processed by: cddbd v1.5PL3 Copyright (c) Steve Scherf et al.
# Submitted via: ExactAudioCopy v0.95a4
#
DISCID=600ead08
DTITLE=L A Jones - Live At The Pink Panther
DYEAR=2000
DGENRE=Blues
TTITLE0=I Am A Loner
TTITLE1=How Blue Can You Get
TTITLE2=Searchin' For A Home
TTITLE3=Overall Junction
TTITLE4=Boogie Child
TTITLE5=The Sky Is Cryin'
TTITLE6=Stranded/Sweet Home Chicago Medley
TTITLE7=A New Old Fashioned Love
EXTD=
EXTT0=
EXTT1=
EXTT2=
EXTT3=
EXTT4=
EXTT5=
EXTT6=
EXTT7=
PLAYORDER=
